<?xml version="1.0" encoding="utf-8"?>
<!-- Generator: Adobe Illustrator 18.1.0, SVG Export Plug-In . SVG Version: 6.00 Build 0)  -->
<svg version="1.1" id="Layer_1" xmlns="http://www.w3.org/2000/svg" xmlns:xlink="http://www.w3.org/1999/xlink" x="0px" y="0px"
	 viewBox="0 0 300 200" style="enable-background:new 0 0 300 200;" xml:space="preserve">
<style type="text/css">
	.st0{fill:none;stroke:#90B3FF;stroke-width:4;stroke-miterlimit:10;}
	.st1{fill:none;stroke:#90B3FF;stroke-miterlimit:10;}
	.st2{fill:#90B3FF;}
	.st3{font-family:'OpenSans-Bold';}
	.st4{font-size:26;}
</style>
<path class="st0" d="M229.6,162.4c0.8-13,16.4-25.6,31.8-25.6l0-76c-16.6,0-31.9-8.9-31.9-22.4L71.3,38.4
	c0,13.5-15.8,22.3-32.4,22.4l0,76c15.4,0,31.5,12.6,32.3,25.6L229.6,162.4z"/>
<path class="st1" d="M208.1,141.4l-115.7,0c-14.7,0-26.7-12-26.7-26.7l0-25.3c0-14.7,12-26.7,26.7-26.7l115.7,0
	c14.7,0,26.7,12,26.7,26.7l0,25.3C234.8,129.3,222.8,141.4,208.1,141.4z"/>
<text transform="matrix(1 3.733902e-04 -3.733902e-04 1 108.9951 110.3959)" class="st2 st3 st4">APPLY</text>
<polygon class="st2" points="92.1,90.8 84.2,108.8 101.3,98.2 82.9,97.7 98,109.2 "/>
<polygon class="st2" points="208.4,90.8 200.6,108.8 217.6,98.2 199.2,97.7 214.3,109.2 "/>
</svg>
